<svg width="204" height="54" viewBox="0 0 204 54" fill="none" xmlns="http://www.w3.org/2000/svg">
<path d="M61.0274 50.57C59.3174 50.57 57.7214 50.266 56.2394 49.658C54.7954 49.05 53.6364 48.1 52.7624 46.808C51.8884 45.516 51.4514 43.882 51.4514 41.906C51.4514 39.056 52.4014 36.852 54.3014 35.294C56.2014 33.698 59.0704 32.9 62.9084 32.9H69.9194V32.387C69.9194 31.323 69.4824 30.544 68.6084 30.05C67.7344 29.556 66.1954 29.309 63.9914 29.309C60.8754 29.309 57.7974 29.784 54.7574 30.734V24.293C56.1254 23.761 57.8354 23.324 59.8874 22.982C61.9394 22.602 64.0294 22.412 66.1574 22.412C70.4514 22.412 73.8524 23.286 76.3604 25.034C78.8684 26.782 80.1224 29.556 80.1224 33.356V50H70.7744L70.2614 47.834C69.3114 48.67 68.0764 49.335 66.5564 49.829C65.0744 50.323 63.2314 50.57 61.0274 50.57ZM64.6754 44.3C65.8914 44.3 66.9174 44.091 67.7534 43.673C68.6274 43.255 69.3494 42.742 69.9194 42.134V38.771H64.7324C62.3764 38.771 61.1984 39.702 61.1984 41.564C61.1984 43.388 62.3574 44.3 64.6754 44.3ZM96.5589 50.57C92.9489 50.57 90.3269 49.658 88.6929 47.834C87.0589 46.01 86.2419 43.54 86.2419 40.424V30.905H82.7079V22.982H86.2419V17.453L96.9579 14.888V22.982H103.171L102.772 30.905H96.9579V39.626C96.9579 40.766 97.2429 41.583 97.8129 42.077C98.3829 42.533 99.2569 42.761 100.435 42.761C101.537 42.761 102.658 42.571 103.798 42.191V49.316C101.784 50.152 99.3709 50.57 96.5589 50.57ZM121.518 50.57C118.364 50.57 115.571 50.057 113.139 49.031C110.745 47.967 108.864 46.39 107.496 44.3C106.166 42.21 105.501 39.626 105.501 36.548C105.501 32.254 106.717 28.834 109.149 26.288C111.581 23.704 115.21 22.412 120.036 22.412C124.444 22.412 127.883 23.533 130.353 25.775C132.861 28.017 134.115 31.076 134.115 34.952V39.683H115.362C115.856 41.127 116.825 42.153 118.269 42.761C119.713 43.369 121.67 43.673 124.14 43.673C125.698 43.673 127.256 43.54 128.814 43.274C130.41 42.97 131.683 42.628 132.633 42.248V48.689C129.973 49.943 126.268 50.57 121.518 50.57ZM115.362 33.869H124.881V32.9C124.881 31.836 124.539 30.962 123.855 30.278C123.209 29.594 122.05 29.252 120.378 29.252C118.516 29.252 117.205 29.651 116.445 30.449C115.723 31.209 115.362 32.349 115.362 33.869Z" fill="#333333"/>
<path d="M142.399 50V21.272H132.082V13.292H163.432V21.272H153.115V50H142.399ZM176.62 50.57C171.224 50.57 167.234 49.373 164.65 46.979C162.104 44.585 160.831 41.089 160.831 36.491C160.831 31.931 162.123 28.454 164.707 26.06C167.291 23.628 171.262 22.412 176.62 22.412C182.016 22.412 186.006 23.628 188.59 26.06C191.212 28.454 192.523 31.931 192.523 36.491C192.523 41.089 191.231 44.585 188.647 46.979C186.063 49.373 182.054 50.57 176.62 50.57ZM176.62 42.761C178.368 42.761 179.622 42.267 180.382 41.279C181.18 40.291 181.579 38.695 181.579 36.491C181.579 34.325 181.18 32.748 180.382 31.76C179.622 30.734 178.368 30.221 176.62 30.221C174.91 30.221 173.675 30.734 172.915 31.76C172.155 32.748 171.775 34.325 171.775 36.491C171.775 38.695 172.155 40.291 172.915 41.279C173.675 42.267 174.91 42.761 176.62 42.761Z" fill="#A4AAAD"/>
<g clip-path="url(#clip0_168_898)">
<path d="M18.0745 37.9288L22.3274 46.8002L43.7992 5.1098L34.5132 4.89672L18.0745 37.9288Z" fill="#333333"/>
<path d="M26.424 38.0794L22.4243 46.7896L0.895749 4.91265L9.9247 4.91265L26.424 38.0794Z" fill="#333333"/>
<path d="M35 40.7896L45 21.7896V50.2896H35V40.7896Z" fill="#333333"/>
<path d="M35 40.7896L45 21.7896V50.2896H35V40.7896Z" fill="#333333"/>
<path d="M10 41.2896L0 22.2896V50.7896H10V41.2896Z" fill="#333333"/>
<path d="M10 41.2896L0 22.2896V50.7896H10V41.2896Z" fill="#333333"/>
</g>
<defs>
<clipPath id="clip0_168_898">
<rect width="45" height="51.2896" fill="white"/>
</clipPath>
</defs>
</svg>
